<?xml version="1.0" encoding="UTF-8"?>
<svg width="28px" height="28px" viewBox="0 0 28 28" version="1.1" xmlns="http://www.w3.org/2000/svg" xmlns:xlink="http://www.w3.org/1999/xlink">
    <!-- Generator: sketchtool 47.1 (45422) - http://www.bohemiancoding.com/sketch -->
    <title>C3C1E69B-0861-4692-BB99-37299A068559</title>
    <desc>Created with sketchtool.</desc>
    <defs></defs>
    <g id="Page-1" stroke="none" stroke-width="1" fill="none" fill-rule="evenodd">
        <g id="main-1280-720" transform="translate(-69.000000, -77.000000)" stroke="#FFFFFF" fill="#FFFFFF">
            <g id="main_menu_icon" transform="translate(68.000000, 78.000000)">
                <g id="apps_icon" transform="translate(2.000000, 0.000000)">
                    <g>
                        <g id="e71a" fill-rule="nonzero">
                            <path d="M0,0 L11,0 L11,11 L0,11 L0,0 Z M10.2142857,10.2142857 L10.2142857,0.785714286 L0.785714286,0.785714286 L0.785714286,10.2142857 L10.2142857,10.2142857 Z" id="Shape"></path>
                        </g>
                        <g id="e71a-copy-2" transform="translate(0.000000, 15.000000)" fill-rule="nonzero">
                            <path d="M0,0 L11,0 L11,11 L0,11 L0,0 Z M10.2142857,10.2142857 L10.2142857,0.785714286 L0.785714286,0.785714286 L0.785714286,10.2142857 L10.2142857,10.2142857 Z" id="Shape"></path>
                        </g>
                        <g id="e71a-copy" transform="translate(15.000000, 0.000000)" fill-rule="nonzero">
                            <path d="M0,0 L11,0 L11,11 L0,11 L0,0 Z M10.2142857,10.2142857 L10.2142857,0.785714286 L0.785714286,0.785714286 L0.785714286,10.2142857 L10.2142857,10.2142857 Z" id="Shape"></path>
                        </g>
                        <g id="e71a-copy-3" transform="translate(15.000000, 15.000000)" fill-rule="nonzero">
                            <path d="M0,0 L11,0 L11,11 L0,11 L0,0 Z M10.2142857,10.2142857 L10.2142857,0.785714286 L0.785714286,0.785714286 L0.785714286,10.2142857 L10.2142857,10.2142857 Z" id="Shape"></path>
                        </g>
                    </g>
                </g>
            </g>
        </g>
    </g>
</svg>