<?xml version="1.0" encoding="UTF-8"?>
<svg width="32px" height="44px" viewBox="0 0 32 44" version="1.1" xmlns="http://www.w3.org/2000/svg" xmlns:xlink="http://www.w3.org/1999/xlink">
    <!-- Generator: sketchtool 47.1 (45422) - http://www.bohemiancoding.com/sketch -->
    <title>F7063233-0AB7-40CE-B297-2D2087E8D77E</title>
    <desc>Created with sketchtool.</desc>
    <defs></defs>
    <g id="Symbols" stroke="none" stroke-width="1" fill="none" fill-rule="evenodd">
        <g id="new_plug" fill-rule="nonzero" fill="#FFFFFF">
            <g>
                <path d="M27.2941176,4.78024691 C25.7882353,3.24084537 24.0541889,2.05793681 22.1224005,1.23152124 C20.190612,0.405105671 18.152347,0 16.0076055,0 C13.8628639,0 11.809388,0.405105671 9.87759952,1.23152124 C7.94581105,2.05793681 6.22697564,3.24084537 4.70588235,4.78024691 L6.57682709,6.69234568 C7.83933452,5.39600753 9.28437314,4.42375392 10.896732,3.7431764 C12.5243018,3.06259887 14.2127154,2.72231011 15.9923945,2.72231011 C17.7720737,2.72231011 19.4604872,3.06259887 21.088057,3.7431764 C22.7156269,4.42375392 24.1454545,5.41221176 25.407962,6.69234568 L27.2941176,4.78024691 Z" id="Shape"></path>
                <path d="M16,5.75802469 C14.5701723,5.75802469 13.2163993,6.01600627 11.92347,6.53196943 C10.6305407,7.04793259 9.48972074,7.77635117 8.47058824,8.74757594 L10.341533,10.5382716 C11.0868687,9.82502841 11.9538919,9.26353909 12.9273916,8.88415442 C13.9008913,8.50476974 14.9352347,8.30748971 16,8.30748971 C17.0647653,8.30748971 18.0838978,8.50476974 19.0726084,8.88415442 C20.0461081,9.26353909 20.9131313,9.82502841 21.658467,10.5382716 L23.5294118,8.74757594 C22.5102793,7.77635117 21.3694593,7.0327572 20.07653,6.53196943 C18.7836007,6.03118166 17.4298277,5.75802469 16,5.75802469 Z" id="Shape"></path>
                <rect id="Rectangle-path" x="8.47058824" y="25.4222222" width="2.82352941" height="7.82222222"></rect>
                <rect id="Rectangle-path" x="20.7058824" y="25.4222222" width="2.82352941" height="7.82222222"></rect>
                <path d="M24.5374878,44 L7.46251217,44 C3.34956183,44 0,40.5703457 0,36.3590491 L0,22.9594694 C0,18.7481729 3.34956183,15.3185185 7.46251217,15.3185185 L24.5374878,15.3185185 C28.6504382,15.3185185 32,18.7481729 32,22.9594694 L32,36.3590491 C31.9844206,40.5703457 28.6348588,44 24.5374878,44 Z M7.46251217,18.1260495 C4.86075949,18.1260495 2.74196689,20.2955053 2.74196689,22.9594694 L2.74196689,36.3590491 C2.74196689,39.0230132 4.86075949,41.192469 7.46251217,41.192469 L24.5374878,41.192469 C27.1392405,41.192469 29.2580331,39.0230132 29.2580331,36.3590491 L29.2580331,22.9594694 C29.2580331,20.2955053 27.1392405,18.1260495 24.5374878,18.1260495 L7.46251217,18.1260495 Z" id="Shape"></path>
            </g>
        </g>
    </g>
</svg>