<?xml version="1.0" encoding="UTF-8"?>
<svg width="54px" height="74px" viewBox="0 0 54 74" version="1.1" xmlns="http://www.w3.org/2000/svg" xmlns:xlink="http://www.w3.org/1999/xlink">
    <!-- Generator: sketchtool 47.1 (45422) - http://www.bohemiancoding.com/sketch -->
    <title>D7DFA37A-DF2B-43EB-B5AB-A44605E3FD79</title>
    <desc>Created with sketchtool.</desc>
    <defs></defs>
    <g id="Symbols" stroke="none" stroke-width="1" fill="none" fill-rule="evenodd">
        <g id="plug_icon_on" fill-rule="nonzero" fill="#FFFFFF">
            <g>
                <path d="M46.0588235,8.03950617 C43.5176471,5.45051266 40.5914439,3.46107554 37.3315508,2.07119481 C34.0716578,0.681314082 30.6320856,0 27.0128342,0 C23.3935829,0 19.9283422,0.681314082 16.6684492,2.07119481 C13.4085561,3.46107554 10.5080214,5.45051266 7.94117647,8.03950617 L11.0983957,11.2553086 C13.228877,9.07510358 15.6673797,7.43994978 18.3882353,6.29534212 C21.1347594,5.15073446 23.9839572,4.57843063 26.9871658,4.57843063 C29.9903743,4.57843063 32.8395722,5.15073446 35.5860963,6.29534212 C38.3326203,7.43994978 40.7454545,9.10235614 42.8759358,11.2553086 L46.0588235,8.03950617 Z" id="Shape"></path>
                <path d="M27,9.68395062 C24.5871658,9.68395062 22.3026738,10.1178287 20.1208556,10.985585 C17.9390374,11.8533412 16.0139037,13.0784088 14.2941176,14.7118323 L17.4513369,17.7234568 C18.7090909,16.5239114 20.1721925,15.5795885 21.8149733,14.9415324 C23.457754,14.3034764 25.2032086,13.9716872 27,13.9716872 C28.7967914,13.9716872 30.5165775,14.3034764 32.1850267,14.9415324 C33.8278075,15.5795885 35.2909091,16.5239114 36.5486631,17.7234568 L39.7058824,14.7118323 C37.9860963,13.0784088 36.0609626,11.8278189 33.8791444,10.985585 C31.6973262,10.143351 29.4128342,9.68395062 27,9.68395062 Z" id="Shape"></path>
                <rect id="Rectangle-path" x="14.2941176" y="42.7555556" width="4.76470588" height="13.1555556"></rect>
                <rect id="Rectangle-path" x="34.9411765" y="42.7555556" width="4.76470588" height="13.1555556"></rect>
                <path d="M41.4070107,74 L12.5929893,74 C5.65238559,74 0,68.231945 0,61.1493099 L0,38.613653 C0,31.531018 5.65238559,25.762963 12.5929893,25.762963 L41.4070107,25.762963 C48.3476144,25.762963 54,31.531018 54,38.613653 L54,61.1493099 C53.9737098,68.231945 48.3213242,74 41.4070107,74 Z M12.5929893,30.4847196 C8.20253165,30.4847196 4.62706913,34.1333498 4.62706913,38.613653 L4.62706913,61.1493099 C4.62706913,65.6296132 8.20253165,69.2782433 12.5929893,69.2782433 L41.4070107,69.2782433 C45.7974684,69.2782433 49.3729309,65.6296132 49.3729309,61.1493099 L49.3729309,38.613653 C49.3729309,34.1333498 45.7974684,30.4847196 41.4070107,30.4847196 L12.5929893,30.4847196 Z" id="Shape"></path>
            </g>
        </g>
    </g>
</svg>