<?xml version="1.0" encoding="UTF-8"?>
<svg width="32px" height="44px" viewBox="0 0 32 44" version="1.1" xmlns="http://www.w3.org/2000/svg" xmlns:xlink="http://www.w3.org/1999/xlink">
    <!-- Generator: sketchtool 47.1 (45422) - http://www.bohemiancoding.com/sketch -->
    <title>8E59BE02-1472-4510-80A6-7889BE2C8402</title>
    <desc>Created with sketchtool.</desc>
    <defs></defs>
    <g id="Symbols" stroke="none" stroke-width="1" fill="none" fill-rule="evenodd">
        <g id="thermostat">
            <g>
                <rect id="Rectangle" x="0" y="0" width="32" height="44"></rect>
                <path d="M25.6596859,31.3896545 C25.4415358,30.5548232 25.1186736,29.7463551 24.6823735,28.9730377 C24.2460733,28.1997204 23.7050611,27.4879169 23.0593368,26.8376273 C22.8673647,26.644298 22.6753927,26.468544 22.4659686,26.2840024 C22.2565445,26.1082485 22.0383944,25.9412822 21.8202443,25.7831037 L21.8202443,5.86139405 C21.8202443,5.0705013 21.6719023,4.31475934 21.3752182,3.60295586 C21.078534,2.89115239 20.6509599,2.25843819 20.1012216,1.70481326 C19.5340314,1.13361294 18.8970332,0.711803475 18.1815009,0.421809467 C17.4659686,0.140603156 16.7417103,0 15.991274,0 C15.2495637,0 14.5165794,0.140603156 13.8010471,0.430597164 C13.0855148,0.711803475 12.4485166,1.14240064 11.8813264,1.71360096 C11.3315881,2.26722588 10.91274,2.89994008 10.6073298,3.61174356 C10.3106457,4.32354703 10.1623037,5.079289 10.1623037,5.87018175 L10.1623037,25.7479529 C9.94415358,25.9412822 9.72600349,26.1082485 9.51657941,26.2840024 C9.30715532,26.4597563 9.10645724,26.644298 8.92321117,26.8376273 C8.27748691,27.4879169 7.73647469,28.1997204 7.30017452,28.9730377 C6.86387435,29.7463551 6.54101222,30.5548232 6.32286213,31.3896545 C6.10471204,32.2244857 6,33.0768924 6,33.9556621 C6,34.8168564 6.10471204,35.6604753 6.32286213,36.4865189 C6.38394415,36.7237867 6.43630017,36.8995406 6.4886562,37.0665069 C6.5061082,37.1280208 6.53228621,37.1895347 6.54973822,37.2510485 C6.58464223,37.3565009 6.61954625,37.4531656 6.66317627,37.5586179 C7.54450262,39.8434192 9.21989529,41.7239864 11.3490401,42.8488117 C11.4450262,42.8927501 11.5322862,42.9366886 11.6282723,42.9806271 C12.0994764,43.1915319 12.5968586,43.3848612 13.1116928,43.5430397 C13.3560209,43.622129 13.609075,43.6924306 13.8621291,43.7715199 C14.1500873,43.8330338 14.4467714,43.8857599 14.7521815,43.9209107 C15.1623037,43.9736369 15.5811518,44 16,44 C16.4188482,44 16.8376963,43.9736369 17.2478185,43.9209107 C17.5445026,43.8857599 17.8411867,43.8330338 18.1378709,43.7715199 C18.399651,43.6924306 18.6439791,43.622129 18.8883072,43.5430397 C19.4031414,43.3848612 19.8917976,43.1915319 20.3717277,42.9806271 C20.4677138,42.9366886 20.5549738,42.8927501 20.6509599,42.8488117 C22.7801047,41.7151987 24.4642234,39.8346315 25.3368237,37.5586179 C25.3717277,37.4531656 25.4153578,37.3565009 25.4502618,37.2510485 C25.4677138,37.1895347 25.4938918,37.1280208 25.5113438,37.0665069 C25.5636998,36.8995406 25.6160558,36.7325744 25.6596859,36.5568205 C25.886562,35.6604753 26,34.8168564 26,33.9556621 C25.982548,33.08568 25.877836,32.2244857 25.6596859,31.3896545 Z M23.7486911,34.3686838 C23.7050611,35.2210905 23.521815,36.0647094 23.1989529,36.8995406 C22.8237347,37.8661873 22.2565445,38.7273817 21.4886562,39.4919113 C20.895288,40.0894747 20.2146597,40.5727981 19.4642234,40.9418814 L19.4642234,40.924306 C18.7748691,41.2758139 18.0331588,41.5218694 17.2390925,41.6536848 C16.8289703,41.7239864 16.4101222,41.7591372 15.991274,41.7591372 C15.5724258,41.7591372 15.1448517,41.7239864 14.7434555,41.6536848 C13.9581152,41.5218694 13.2076789,41.2758139 12.5183246,40.924306 L12.5183246,40.9418814 C11.7678883,40.5815858 11.08726,40.0982624 10.4938918,39.4919113 C9.73472949,38.7273817 9.16753927,37.8573996 8.78359511,36.8995406 C8.46073298,36.0734971 8.27748691,35.2298782 8.23385689,34.3686838 C8.22513089,34.219293 8.21640489,34.0786898 8.21640489,33.929299 C8.21640489,33.8677851 8.22513089,33.8062712 8.22513089,33.7447573 C8.22513089,33.6744558 8.22513089,33.6041542 8.23385689,33.5338526 C8.29493892,32.2947873 8.64397906,31.1348113 9.21116928,30.1154384 C9.2460733,30.0539245 9.28097731,29.9836229 9.32460733,29.922109 C9.36823735,29.8518075 9.41186736,29.7815059 9.45549738,29.7112043 C9.48167539,29.6672658 9.51657941,29.6145396 9.55148342,29.5706012 C10.2670157,28.4985021 11.2443281,27.6109447 12.3874346,27.0045936 L12.3874346,24.5352506 L12.3961606,5.86139405 C12.3961606,5.3868584 12.4834206,4.92111045 12.6666667,4.47293789 C12.8499127,4.02476533 13.1116928,3.62931895 13.452007,3.28659876 C13.7923211,2.94387857 14.1937173,2.68024765 14.6387435,2.50449371 C15.0837696,2.32873976 15.5375218,2.24086279 15.991274,2.24086279 C16.4450262,2.24086279 16.8987784,2.32873976 17.3438045,2.50449371 C17.7888307,2.68024765 18.1815009,2.94387857 18.530541,3.28659876 C18.8708551,3.62931895 19.1326353,4.02476533 19.3158813,4.47293789 C19.4991274,4.92111045 19.5863874,5.3780707 19.5863874,5.86139405 L19.5951134,24.5352506 L19.5951134,27.0045936 C20.7382199,27.6109447 21.7155323,28.4985021 22.4310646,29.5706012 C22.4659686,29.6145396 22.4921466,29.6672658 22.5270506,29.7112043 C22.5706806,29.7815059 22.6143106,29.8518075 22.6579407,29.922109 C22.6928447,29.9836229 22.7364747,30.0539245 22.7713787,30.1154384 C23.3385689,31.1348113 23.6876091,32.2947873 23.7486911,33.5338526 C23.7486911,33.6041542 23.7574171,33.6744558 23.7574171,33.7447573 C23.7574171,33.8062712 23.7661431,33.8677851 23.7661431,33.929299 C23.7661431,34.0786898 23.7574171,34.2280807 23.7486911,34.3686838 Z" id="Shape" fill="#FFFFFF" fill-rule="nonzero"></path>
                <rect id="Rectangle-4" fill="#FFFFFF" x="15" y="8.18604651" width="2" height="15.3488372" rx="1"></rect>
            </g>
        </g>
    </g>
</svg>